<svg id="Layer_1" data-name="Layer 1" xmlns="http://www.w3.org/2000/svg" viewBox="0 0 274.02 70"><defs><style>.cls-1{fill:#282828;}.cls-2{fill:#093b21;}.cls-3{fill:#bed991;}</style></defs><title>Artboard 4</title><path class="cls-1" d="M128.89,52.59a17.53,17.53,0,0,1-6.67-6.89,21.12,21.12,0,0,1-2.48-10.42,22.73,22.73,0,0,1,2.39-10.62,17,17,0,0,1,6.8-7.12A20.22,20.22,0,0,1,139.25,15a19.62,19.62,0,0,1,9.12,2.06,6.75,6.75,0,0,1,4,6.35A6.35,6.35,0,0,1,150.75,28a5.68,5.68,0,0,1-4.46,1.88,4,4,0,0,1-1.83-.39,2.83,2.83,0,0,1-1.1-.93,1.25,1.25,0,0,1-.3-.83c0-.07.28-.29.84-.65a5.32,5.32,0,0,0,1.48-1.51,4,4,0,0,0,.68-2.32A5.36,5.36,0,0,0,144.25,19a7.47,7.47,0,0,0-5.07-1.57,10.75,10.75,0,0,0-6.47,2.06,13.23,13.23,0,0,0-4.4,6,25.59,25.59,0,0,0-1.59,9.45,21.49,21.49,0,0,0,1.7,8.67,15,15,0,0,0,4.82,6.2,11.7,11.7,0,0,0,7.1,2.29,10.79,10.79,0,0,0,5.5-1.38A12.38,12.38,0,0,0,150,46.38a.93.93,0,0,1,.84-.54,2.17,2.17,0,0,1,1.08.36c.63.44,1,.87,1,1.31a.85.85,0,0,1-.24.6,23.23,23.23,0,0,1-4.26,4.32,11.68,11.68,0,0,1-4.34,2,27.26,27.26,0,0,1-5.84.54A18.35,18.35,0,0,1,128.89,52.59Z"/>
	<path class="cls-1" d="M174,53.58a1.61,1.61,0,0,1-.27-.93c0-.59.16-.95.36-1.07a2.34,2.34,0,0,1,1.14-.17,4.37,4.37,0,0,0,2.56-.63,2.65,2.65,0,0,0,1-1.55,14,14,0,0,0,.27-2.41V23.15a13.89,13.89,0,0,0-.27-2.41,2.65,2.65,0,0,0-1-1.55,4.22,4.22,0,0,0-2.56-.63h-.36a1.25,1.25,0,0,1-.84-.21,1.71,1.71,0,0,1-.3-1,1.6,1.6,0,0,1,.27-.92.89.89,0,0,1,.81-.38q3.87.16,7,.17,3.58,0,7.45-.17a.89.89,0,0,1,.81.38,1.59,1.59,0,0,1,.26.92c0,.6-.16,1-.35,1.08a2.6,2.6,0,0,1-1.14.18,4.29,4.29,0,0,0-2.56.62,2.66,2.66,0,0,0-1.06,1.52,16.16,16.16,0,0,0-.27,2.41V33.7H203.7V23.15a13.89,13.89,0,0,0-.27-2.41,2.59,2.59,0,0,0-1-1.55,4.24,4.24,0,0,0-2.57-.63h-.36a1.38,1.38,0,0,1-.86-.21c-.18-.13-.29-.48-.33-1a1.45,1.45,0,0,1,.3-.92.92.92,0,0,1,.77-.39c2.59.12,5.07.18,7.46.18,2.18,0,4.55-.06,7.09-.18a.91.91,0,0,1,.8.39,1.58,1.58,0,0,1,.27.92c0,.6-.17,1-.39,1.07a2.41,2.41,0,0,1-1.1.18,4.37,4.37,0,0,0-2.59.63,2.55,2.55,0,0,0-1.07,1.55,13.89,13.89,0,0,0-.27,2.41V46.82a14,14,0,0,0,.27,2.41,2.58,2.58,0,0,0,1.07,1.55,4.44,4.44,0,0,0,2.59.63h.36a1.33,1.33,0,0,1,.8.2,1.53,1.53,0,0,1,.33,1,1.61,1.61,0,0,1-.27.93.91.91,0,0,1-.8.39c-2.54-.12-4.93-.18-7.15-.18s-4.82.06-7.4.18a1,1,0,0,1-.77-.39,1.48,1.48,0,0,1-.3-.93c0-.59.17-.95.39-1.07a2.55,2.55,0,0,1,1.16-.17,4.38,4.38,0,0,0,2.57-.63,2.59,2.59,0,0,0,1-1.55,14,14,0,0,0,.27-2.41V36.26H185V46.82a14,14,0,0,0,.27,2.41,2.65,2.65,0,0,0,1,1.55,4.37,4.37,0,0,0,2.56.63h.36a1.27,1.27,0,0,1,.83.2,1.87,1.87,0,0,1,0,2,.93.93,0,0,1-.81.39c-2.54-.1-5-.15-7.39-.15q-3.22,0-7.09.18A.93.93,0,0,1,174,53.58Z"/>
	<path class="cls-1" d="M234.27,53.65a1.65,1.65,0,0,1-.27-.92c.05-.6.16-.95.36-1.08a1.39,1.39,0,0,1,.69-.18h.54a3.32,3.32,0,0,0,2.63-.92,7.52,7.52,0,0,0,1.38-2.06c.34-.77.56-1.3.69-1.58l10.43-24.68a3.92,3.92,0,0,0,.36-1.43,1.65,1.65,0,0,0-.84-1.55,7.64,7.64,0,0,0-2.32-.77,3.9,3.9,0,0,1-1.25-.36c-.16-.12-.24-.46-.24-1a1,1,0,0,1,.38-1,2.48,2.48,0,0,1,1.23-.23,19.89,19.89,0,0,1,4.74.44,6.52,6.52,0,0,1,3.07,1.79,12.84,12.84,0,0,1,2.44,4.08l10,24.68A15.3,15.3,0,0,0,270,50.3a3,3,0,0,0,2.49,1.19h.36a1.32,1.32,0,0,1,.84.22,1.66,1.66,0,0,1,.28,1,1.57,1.57,0,0,1-.26.92.93.93,0,0,1-.81.39c-2.55-.12-4.73-.18-6.56-.18q-3.57,0-7.39.18a.9.9,0,0,1-.8-.39,1.83,1.83,0,0,1,0-2,1.3,1.3,0,0,1,.83-.22,7.55,7.55,0,0,0,2.87-.38,1.38,1.38,0,0,0,.83-1.38,10.44,10.44,0,0,0-.69-2.8L260,42H245.27c-1,2.47-1.57,3.89-1.7,4.29a5,5,0,0,0-.2.69,12.18,12.18,0,0,0-.69,2.92,1.3,1.3,0,0,0,.89,1.34,11.76,11.76,0,0,0,3.4.32h.35a1.31,1.31,0,0,1,.84.21,1.69,1.69,0,0,1,.3,1,1.61,1.61,0,0,1-.27.93.92.92,0,0,1-.81.39q-3.81-.18-6.49-.18c-1.28,0-3.21.06-5.78.18A.92.92,0,0,1,234.27,53.65ZM246.4,39.38h12.52l-6-15.32h-.18Z"/>
	<path class="cls-1" d="M83.09,37.94c-.32-1.07-.39-1.64-.22-1.7l19.67-5.68c.12-.06.29.23.51.86a10.83,10.83,0,0,1,.41,1.68c.06.43,0,.66,0,.67L83.81,39.44C83.65,39.51,83.4,39,83.09,37.94Z"/>
	<path class="cls-2" d="M18.06,1.22c5-1.3,9.33-.62,10,2.38C29,7.41,22.14,8.71,16,11.51A34.13,34.13,0,0,0,0,26.59C.57,10.11,12.75,2.6,18.06,1.22Z"/><path class="cls-3" d="M57.15,45.35A22.39,22.39,0,0,0,34.68,23.82,22.72,22.72,0,0,0,27.4,25l-.39.13-.16.06-.41.16h0l-.39.16,0,0A19.49,19.49,0,0,0,15.31,36.92c-3.66,11.64,2.53,27.59,23,31.2.8.14,1.61.27,2.45.37C18,75.25,1.15,58.13,1.88,41.11c.49-11.37,7.73-21.67,24-26.83,6.16-1.94,8.67-4.58,8.77-7.78.14-4.32-2.22-6-2.89-6.4L31.6,0l.55.06a23.44,23.44,0,0,1,3.66.71C53,5.44,64.82,26.48,57.15,45.35Z"/>
	<path class="cls-2" d="M57.15,45.35a34.27,34.27,0,0,1-1.81,3.78C48.52,61.31,30.48,63.84,23,52.78c4.3,2.11,11.84,2,17.15-2.31C51.8,41,46.41,21.71,30.07,24.36A17.36,17.36,0,0,0,27.4,25a22.72,22.72,0,0,1,7.28-1.19A22.39,22.39,0,0,1,57.15,45.35Z"/></svg>